<svg width="24" height="24" viewBox="0 0 24 24" fill="none" xmlns="http://www.w3.org/2000/svg">
<path d="M7 5.92004H8.28M8.28 5.92004V18.08M8.28 5.92004H13.0799C13.8437 5.92004 14.5762 6.22346 15.1163 6.76357C15.6564 7.30367 15.9599 8.03621 15.9599 8.80004C15.9599 9.56386 15.6564 10.2964 15.1163 10.8365C14.5762 11.3766 13.8437 11.68 13.0799 11.68M7 18.08H8.28M8.28 18.08L14.0399 18.08C14.8886 18.08 15.7025 17.7429 16.3026 17.1428C16.9027 16.5427 17.2399 15.7287 17.2399 14.88C17.2399 14.0313 16.9027 13.2174 16.3026 12.6173C15.7025 12.0172 14.8886 11.68 14.0399 11.68H8.27987M12 5.92V4M12 20V18.08" stroke="white" stroke-linecap="round" stroke-linejoin="round"/>
</svg>
