<svg width="24" height="24" viewBox="0 0 24 24" fill="none" xmlns="http://www.w3.org/2000/svg">
<ellipse cx="8.111" cy="12.5275" rx="1.66667" ry="2.15058" stroke="#C3C2D4" stroke-linecap="round" stroke-linejoin="round"/>
<ellipse cx="15.8888" cy="12.5275" rx="1.66667" ry="2.15058" stroke="#C3C2D4" stroke-linecap="round" stroke-linejoin="round"/>
<path d="M2 16.2216C2.52503 12.7637 3.05006 10.2626 4.55997 6.86502C4.65621 6.64844 4.82866 6.47425 5.04374 6.37472C6.88765 5.52143 7.95264 5.16501 9.58974 5V6.02015" stroke="#C3C2D4" stroke-linecap="round" stroke-linejoin="round"/>
<path d="M2 16.2217C3.76195 18.2277 5.16354 18.7606 7.96337 19.2821L9.04762 17.7519" stroke="#C3C2D4" stroke-linecap="round" stroke-linejoin="round"/>
<path d="M22 16.2216C21.475 12.7637 20.9499 10.2626 19.44 6.86502C19.3438 6.64844 19.1713 6.47425 18.9563 6.37472C17.1124 5.52143 16.0474 5.16501 14.4103 5V6.02015" stroke="#C3C2D4" stroke-linecap="round" stroke-linejoin="round"/>
<path d="M22 16.2217C20.2381 18.2277 18.8365 18.7606 16.0366 19.2821L14.9524 17.7519" stroke="#C3C2D4" stroke-linecap="round" stroke-linejoin="round"/>
<path d="M6.44434 7.14951C10.9705 5.70274 13.402 5.72889 17.5554 7.14951" stroke="#C3C2D4" stroke-linecap="round" stroke-linejoin="round"/>
<path d="M4.22217 15.7527C10.1797 18.6233 13.3342 18.6171 18.6666 15.7527" stroke="#C3C2D4" stroke-linecap="round" stroke-linejoin="round"/>
</svg>
