<svg xmlns="http://www.w3.org/2000/svg" width="25" height="24" viewBox="0 0 25 24" fill="none">
  <path d="M5 3.75L20 20.25" stroke="#C3C2D4" stroke-linecap="round" stroke-linejoin="round"/>
  <path d="M15.0232 14.7746C14.2872 15.4437 13.3156 15.793 12.322 15.7457C11.3285 15.6984 10.3945 15.2584 9.72537 14.5224C9.05627 13.7864 8.70695 12.8148 8.75425 11.8213C8.80154 10.8278 9.24158 9.8937 9.97755 9.22461" stroke="#C3C2D4" stroke-linecap="round" stroke-linejoin="round"/>
  <path d="M13.207 8.31641C14.0043 8.46908 14.7305 8.87632 15.2765 9.47696C15.8225 10.0776 16.1589 10.8392 16.2352 11.6473" stroke="#C3C2D4" stroke-linecap="round" stroke-linejoin="round"/>
  <path d="M20.0584 15.8531C22.1022 14.0231 23.0012 12 23.0012 12C23.0012 12 20.0013 5.25001 12.5013 5.25001C11.8518 5.24912 11.2033 5.3018 10.5625 5.40751" stroke="#C3C2D4" stroke-linecap="round" stroke-linejoin="round"/>
  <path d="M7.4375 6.43164C3.61531 8.36664 2 12.0004 2 12.0004C2 12.0004 5 18.7504 12.5 18.7504C14.2574 18.7642 15.9927 18.3593 17.5625 17.5691" stroke="#C3C2D4" stroke-linecap="round" stroke-linejoin="round"/>
</svg>