<svg xmlns="http://www.w3.org/2000/svg" width="24" height="24" viewBox="0 0 24 24" fill="none">
	<path d="M8.50561 11.8942C7.94944 10.5085 7.88884 8.97327 8.33407 7.54805C8.77929 6.12284 9.70302 4.89509 10.9491 4.0724C12.1951 3.24971 13.687 2.88254 15.1726 3.03299C16.6581 3.18343 18.0461 3.84226 19.1019 4.89806C20.1577 5.95387 20.8166 7.34189 20.967 8.82743C21.1175 10.313 20.7503 11.8049 19.9276 13.0509C19.1049 14.297 17.8772 15.2207 16.4519 15.6659C15.0267 16.1112 13.4915 16.0506 12.1058 15.4944L10.9204 16.6798H8.76032V18.8399H6.6002V21H3V17.3998L8.50561 11.8942Z" stroke="#C3C2D4" stroke-linecap="round" stroke-linejoin="round" />
	<path d="M16.3222 8.75973C16.9187 8.75973 17.4023 8.27617 17.4023 7.67967C17.4023 7.08317 16.9187 6.59961 16.3222 6.59961C15.7257 6.59961 15.2422 7.08317 15.2422 7.67967C15.2422 8.27617 15.7257 8.75973 16.3222 8.75973Z" stroke="#C3C2D4" stroke-linecap="round" stroke-linejoin="round" />
</svg>
