<svg width="24" height="24" viewBox="0 0 24 24" fill="none" xmlns="http://www.w3.org/2000/svg">
<path d="M19.9993 17V17.6667C19.9993 18.3739 19.7184 19.0522 19.2183 19.5523C18.7182 20.0524 18.0399 20.3333 17.3327 20.3333H12.666" stroke="white" stroke-width="1.5" stroke-linecap="round" stroke-linejoin="round"/>
<path d="M20 11H17.3333C16.9797 11 16.6406 11.1405 16.3905 11.3905C16.1405 11.6406 16 11.9797 16 12.3333V15.6667C16 16.0203 16.1405 16.3594 16.3905 16.6095C16.6406 16.8595 16.9797 17 17.3333 17H20V11ZM20 11C20 9.94943 19.7931 8.90914 19.391 7.93853C18.989 6.96793 18.3997 6.08601 17.6569 5.34315C16.914 4.60028 16.0321 4.011 15.0615 3.60896C14.0909 3.20693 13.0506 3 12 3C10.9494 3 9.90914 3.20693 8.93853 3.60896C7.96793 4.011 7.08601 4.60028 6.34315 5.34315C5.60028 6.08601 5.011 6.96793 4.60896 7.93853C4.20693 8.90914 4 9.94943 4 11M4 11V15.6667C4 16.0203 4.14048 16.3594 4.39052 16.6095C4.64057 16.8595 4.97971 17 5.33333 17H6.66667C7.02029 17 7.35943 16.8595 7.60948 16.6095C7.85952 16.3594 8 16.0203 8 15.6667V12.3333C8 11.9797 7.85952 11.6406 7.60948 11.3905C7.35943 11.1405 7.02029 11 6.66667 11H4Z" stroke="white" stroke-width="1.5" stroke-linecap="round" stroke-linejoin="round"/>
</svg>
